<?xml version="1.0" encoding="utf-8"?>
<!-- Generator: Adobe Illustrator 24.0.1, SVG Export Plug-In . SVG Version: 6.00 Build 0)  -->
<svg version="1.1" id="Layer_1" xmlns="http://www.w3.org/2000/svg" xmlns:xlink="http://www.w3.org/1999/xlink" x="0px" y="0px"
	 viewBox="0 0 802.3 65.7" style="enable-background:new 0 0 802.3 65.7;" xml:space="preserve">
<g>
	<path d="M25.6,22.6v36.2L24,56.7c-0.6-4.2-2-8.5-4.1-12.8c-1.4,3.1-3.1,4.6-5.1,4.6c-3,0-5.6-3.1-8-9.2C5,34.6,3.8,29,3.1,22.6
		L5.2,24c1.2,5.6,2.3,9.5,3.2,11.6c1.6,3.7,3.6,5.5,6,5.5c1,0,1.9-0.5,2.5-1.4c0.7-0.9,1-2.2,1-3.8c0-0.9-0.1-1.9-0.4-3.1
		c-0.3-1.5-0.7-2.3-1-2.6c-0.6,2.4-1.6,3.5-3.1,3.5c-1,0-1.9-0.5-2.6-1.5c-0.8-1-1.2-2.3-1.2-3.9c0-1.8,0.5-3.2,1.5-4.2
		c0.8-0.9,1.8-1.3,2.9-1.3c2,0,3.8,1.4,5.3,4.1c1.4,2.6,2.1,5.6,2.1,9c0,0.6,0,1.2,0,1.8l1.1,4V22.6H2.9L0,17.7h26.8l3,4.8H25.6z"/>
	<path d="M31.5,21.4c-0.2-3.2-0.3-6.8-0.3-10.7l1.6,2.2c0.1,1.5,0.3,2.7,0.6,3.7c0.1,0.3,0.3,0.6,0.5,1H37l2.9,4.8h-5.8V60l-2.8-5.1
		V28.7c0-1.4-0.2-2.5-0.5-3.2c-0.8-1.9-1.8-2.9-3-2.9c-0.1,0-0.4,0-0.7,0l-2.9-4.7c1.9-0.3,3.3-0.4,4.3-0.1
		C29.8,18,30.8,19.3,31.5,21.4z"/>
	<path d="M50.6,31.9c0.4,0.3,0.8,1,1.3,2c1.3,2.6,1.9,5.2,1.9,7.8c0,0.9-0.1,1.8-0.2,2.6c-0.4,2.3-1.2,4.1-2.2,5.5
		c-1.1,1.4-2.3,2.1-3.7,2.1c-2.5,0-4.8-2-6.7-6.1c-0.8-1.7-1.6-4.2-2.2-7.5c-0.6-2.6-0.8-7.5-0.8-14.7c1.1,0.9,1.8,1.6,2,1.9
		c-0.1,2.6,0,4.8,0.3,6.6c0.4,2.5,0.7,4.2,0.9,5.1c0.5,1.9,1.3,3.7,2.3,5.2c1.2,1.8,2.4,2.6,3.6,2.4c1-0.1,1.9-0.5,2.7-1
		c1.1-0.8,1.7-1.8,1.7-3.1c0-0.5-0.1-0.9-0.2-1.4c-0.1-0.5-0.3-0.7-0.5-0.7c-0.1,0-0.2,0-0.3,0.1c-1.4,1-2.6,1.5-3.5,1.5
		c-0.8,0-1.6-0.3-2.3-0.9c-1.5-1.7-2.5-3.9-2.8-6.5c-0.1-0.8-0.1-1.5-0.1-2.2c0-2.1,0.7-4.5,2-7.2c0.1-0.2,0.3-0.5,0.5-0.8h-7.5
		l-2.9-4.8h28.1l2.9,4.8h-14c-0.3,0.2-0.7,0.5-1.1,1c-0.1,0.2-0.2,0.3-0.2,0.5c0,0.7,0.6,1.4,1.8,2c1.1,0.6,2,0.9,2.7,0.8
		c0.6-0.1,2-0.7,3.9-1.7c1,1.7,2.2,3.7,3.6,6.1c-0.9,1.4-1.6,3.2-2.3,5.3c-0.7,2.3-1.1,4.4-1.1,6.2c-0.1,1.5-0.2,2.9-0.2,4.1
		c0,2.5,0.6,5.9,1.7,10c-0.3,0.4-0.5,0.6-0.6,0.6c-0.3,0-0.7-0.2-1.3-0.5c-0.6-0.3-1-0.6-1.1-1c-0.3-2.4-0.7-4.7-1-7.1
		c-0.4-2.9-0.6-5.3-0.6-7.1c0-2.9,0.4-6,1.1-9.5c-1.4-0.1-2.8-0.5-4.2-1.2c-1.8-0.8-2.9-1.9-3.6-3.2c-0.1-0.2-0.5-1-1.1-2.4
		c-0.4,0.1-1,1.2-1.7,3.1c-0.7,1.9-1.1,3.3-1.1,4.2c0,1.1,0.4,1.7,1.1,1.7c0.4,0,1.6-0.7,3.3-2.2c0.6-0.5,1-0.7,1.2-0.8
		C50.2,31.5,50.4,31.6,50.6,31.9L50.6,31.9z"/>
	<path d="M72.8,23.7c-3.8,2.5-6,7-6.5,13.6c-0.2,2.2-0.3,3.9-0.3,5.2c0,4.5,1.1,7.8,3.2,10.1c0.1,0.1,0.3,0.1,0.7,0.1
		c0.1,0,0.2,0,0.3,0c0.1,0.4-0.2,0.7-0.9,1.1c0.3,0,0.5-0.1,0.5-0.3c0,0-0.2-0.4-0.5-1.2c-0.3-0.9-0.5-1.5-0.6-2
		c-0.2-2,0.3-3.6,1.6-4.7c0.5-0.4,0.9-0.6,1.4-0.6c0.6,0,1.1,0.3,1.4,0.9c1,0.9,1.5,2.3,1.5,4.4c0,1.8-0.4,3.3-1.2,4.5
		c-0.8,1.2-1.8,1.8-2.9,1.8c-1.4,0-2.6-0.6-3.4-1.8c-2.7-3.7-4-8.9-4-15.6c0-5.8,1.3-11.3,3.8-16.6h-5.6l-2.9-4.8h15.9l2.8,4.7
		C75.5,22.5,74.1,22.9,72.8,23.7z"/>
	<path d="M75.3,25.9L75.3,25.9c-0.3-0.3-0.8-1-1.3-2.1l-0.5-1.5l-2.8-4.6H94l3,5h-6.1v36.5l-1.7-3.1c-0.6-4.3-1.4-7.1-2.3-8.3
		c-1.3-1.9-2.2-3-2.8-3.5c-0.9,2.1-2.2,3.1-3.7,3.1c-1.6,0-2.8-1.1-3.6-3.3c0-0.4,0-0.9-0.1-1.6c-0.1-0.7-0.1-1.2-0.1-1.5
		c0-2.2,0.5-3.9,1.4-5.1c0.8-1.1,1.9-1.7,3.3-1.7c0.4,0,0.8,0.1,1.1,0.2c-0.2-2.4-0.9-4.2-2-5.5c-0.3-0.3-1.1-0.8-2.6-1.5
		C76.4,26.8,75.7,26.3,75.3,25.9z M88,22.7h-8.1c1.5,2.1,2.5,3.5,2.9,4.2c1,1.8,1.6,3.6,1.9,5.4c0.4,3,0.6,5.2,0.6,6.5
		c0.7,1.2,1.6,3,2.7,5.3V22.7z"/>
	<path d="M111.8,10.8c-2.1-2.6-4.4-3.9-7.1-3.9c-1.5,0-3,0.9-4.8,2.8c-0.4,0.6-0.9,1.6-1.4,2.8c-0.6,1.4-0.9,2.3-0.9,2.7l0.7,2.5
		h3.8l2.9,4.8h-5.9v36l-3-4.7V22.6h-2.8l-2.9-4.8H96c-0.4-0.6-0.7-1.2-1.1-1.9c-0.3-0.7-0.5-1.4-0.5-2.2c0-1.4,0.2-2.5,0.5-3.3
		c0.8-2.1,1.5-3.6,2.1-4.6c0.6-1,1.6-2,2.9-3c0.8-0.6,1.8-1,2.9-1c2.8,0,5.7,1.6,8.8,4.8c1,1,2.3,2.9,3.9,5.6l0.9,4.5L111.8,10.8z"
		/>
	<path d="M117.2,22.6v36l-1.6-2.4c-1.4-4.1-2.1-6.3-2.3-6.7c-0.9-2.2-2-3.9-3.4-5.3c-1.6-1.6-3.4-2.5-5.3-2.7l-3.1-7
		c4.3-5.1,8.5-8.7,12.6-10.8v-1.1h-12.5l-3-4.8h21l3,4.8H117.2z M108.8,54.8c-0.8,0-1.4-0.4-1.9-1.3c-0.5-0.9-0.8-1.9-0.8-3.1
		c0-1.1,0.2-2.1,0.7-2.9c0.5-0.8,1-1.2,1.7-1.2c0.6,0,1.1,0.3,1.6,1c0.5,0.6,0.8,1.5,1,2.4c0.2,1.2,0,2.4-0.5,3.5
		C110.2,54.3,109.6,54.8,108.8,54.8z M114.2,30.2c-2.4,1.4-4.7,3.4-6.8,6c3,2.3,5.3,5.4,6.8,9.5V30.2z"/>
	<path d="M149,10.8c-2.1-2.6-4.4-3.9-7.1-3.9c-1.5,0-3,0.9-4.8,2.8c-0.4,0.6-0.9,1.6-1.4,2.8c-0.6,1.4-0.9,2.3-0.9,2.7l0.7,2.5h3.8
		l2.9,4.8h-5.9v36l-3-4.7V22.6h-2.8l-2.9-4.8h5.4c-0.4-0.6-0.7-1.2-1.1-1.9c-0.3-0.7-0.5-1.4-0.5-2.2c0-1.4,0.2-2.5,0.5-3.3
		c0.8-2.1,1.5-3.6,2.1-4.6c0.6-1,1.6-2,2.9-3c0.8-0.6,1.8-1,2.9-1c2.8,0,5.7,1.6,8.8,4.8c1,1,2.3,2.9,3.9,5.6l0.9,4.5L149,10.8z"/>
	<path d="M146.4,24.1c-0.3-0.8-0.8-1.4-1.3-1.6h-6.2l-3.1-4.8h21.8l2.9,4.8h-11.9l0.1,0.4c0.1,0.3,0.3,0.7,0.5,1.2
		c0.5,0,1.1,0.3,1.8,0.8c2.3,1.5,3.7,4.2,4.2,8.1c0.1,0.6,0.1,1.3,0.1,1.9c0,3.8-1.1,6.7-3.4,8.7c-0.1,0.1-0.9,0.7-2.3,1.9
		c0.3,0.2,0.9,0.7,1.8,1.6c1.3,1.2,2.5,2.9,3.7,4.8c0.2,0.3,1.3,2.2,3.3,5.7l1.3,8c-1-2.1-1.8-3.5-2.2-4.2c-1.7-3.1-4.2-6.2-7.5-9.3
		c-2.5-2.4-5.3-4.1-8.1-5l-2.9-11.8c2.6,2.9,5,4.4,7.2,4.4c2.2,0,4-1.3,5.7-3.9c0.4-0.6,0.6-1.4,0.6-2.3c0-1.2-0.3-2.2-1-3
		c-0.7-0.8-1.5-1.2-2.3-1.2c-0.2,0-0.4,0-0.5,0.1c-0.1,1.7-0.8,3.4-1.9,5.1c-0.7,1.1-1.5,1.6-2.4,1.6c-1.6,0-2.6-1.3-2.9-3.8
		c-0.2-1.4,0.2-2.9,1-4.6c0.4-0.9,1-1.6,1.7-2.2C144.4,25.4,145.1,25,146.4,24.1z"/>
	<path d="M171.2,31.9c0.4,0.3,0.8,1,1.3,2c1.3,2.6,1.9,5.2,1.9,7.8c0,0.9-0.1,1.8-0.2,2.6c-0.4,2.3-1.2,4.1-2.2,5.5
		c-1.1,1.4-2.3,2.1-3.7,2.1c-2.5,0-4.8-2-6.7-6.1c-0.8-1.7-1.6-4.2-2.2-7.5c-0.6-2.6-0.8-7.5-0.8-14.7c1.1,0.9,1.8,1.6,2,1.9
		c-0.1,2.6,0,4.8,0.3,6.6c0.4,2.5,0.7,4.2,0.9,5.1c0.5,1.9,1.3,3.7,2.3,5.2c1.2,1.8,2.4,2.6,3.6,2.4c1-0.1,1.9-0.5,2.7-1
		c1.1-0.8,1.7-1.8,1.7-3.1c0-0.5-0.1-0.9-0.2-1.4c-0.1-0.5-0.3-0.7-0.5-0.7c-0.1,0-0.2,0-0.3,0.1c-1.4,1-2.6,1.5-3.5,1.5
		c-0.8,0-1.6-0.3-2.3-0.9c-1.5-1.7-2.5-3.9-2.8-6.5c-0.1-0.8-0.1-1.5-0.1-2.2c0-2.1,0.7-4.5,2-7.2c0.1-0.2,0.3-0.5,0.5-0.8h-7.5
		l-2.9-4.8h28.1l2.9,4.8h-14c-0.3,0.2-0.7,0.5-1.1,1c-0.1,0.2-0.2,0.3-0.2,0.5c0,0.7,0.6,1.4,1.8,2c1.1,0.6,2,0.9,2.7,0.8
		c0.6-0.1,2-0.7,3.9-1.7c1,1.7,2.2,3.7,3.6,6.1c-0.9,1.4-1.6,3.2-2.3,5.3c-0.7,2.3-1.1,4.4-1.1,6.2c-0.1,1.5-0.2,2.9-0.2,4.1
		c0,2.5,0.6,5.9,1.7,10c-0.3,0.4-0.5,0.6-0.6,0.6c-0.3,0-0.7-0.2-1.3-0.5c-0.6-0.3-1-0.6-1.1-1c-0.3-2.4-0.7-4.7-1-7.1
		c-0.4-2.9-0.6-5.3-0.6-7.1c0-2.9,0.4-6,1.1-9.5c-1.4-0.1-2.8-0.5-4.2-1.2c-1.8-0.8-2.9-1.9-3.6-3.2c-0.1-0.2-0.5-1-1.1-2.4
		c-0.4,0.1-1,1.2-1.7,3.1c-0.7,1.9-1.1,3.3-1.1,4.2c0,1.1,0.4,1.7,1.1,1.7c0.4,0,1.6-0.7,3.3-2.2c0.6-0.5,1-0.7,1.2-0.8
		C170.9,31.5,171.1,31.6,171.2,31.9L171.2,31.9z"/>
	<path d="M185.4,21.4c-0.2-3.2-0.3-6.8-0.3-10.7l1.6,2.2c0.1,1.5,0.3,2.7,0.6,3.7c0.1,0.3,0.3,0.6,0.5,1h3.1l2.9,4.8H188V60
		l-2.8-5.1V28.7c0-1.4-0.2-2.5-0.5-3.2c-0.8-1.9-1.8-2.9-3-2.9c-0.1,0-0.4,0-0.7,0l-2.9-4.7c1.9-0.3,3.3-0.4,4.3-0.1
		C183.6,18,184.7,19.3,185.4,21.4z"/>
	<path d="M192.1,25.9L192.1,25.9c-0.3-0.3-0.8-1-1.3-2.1l-0.5-1.5l-2.8-4.6h23.2l3,5h-6.1v36.5l-1.7-3.1c-0.6-4.3-1.4-7.1-2.3-8.3
		c-1.3-1.9-2.2-3-2.8-3.5c-0.9,2.1-2.2,3.1-3.7,3.1c-1.6,0-2.8-1.1-3.6-3.3c0-0.4,0-0.9-0.1-1.6c-0.1-0.7-0.1-1.2-0.1-1.5
		c0-2.2,0.5-3.9,1.4-5.1c0.8-1.1,1.9-1.7,3.3-1.7c0.4,0,0.8,0.1,1.1,0.2c-0.2-2.4-0.9-4.2-2-5.5c-0.3-0.3-1.1-0.8-2.6-1.5
		C193.2,26.8,192.4,26.3,192.1,25.9z M204.8,22.7h-8.1c1.5,2.1,2.5,3.5,2.9,4.2c1,1.8,1.6,3.6,1.9,5.4c0.4,3,0.6,5.2,0.6,6.5
		c0.7,1.2,1.6,3,2.7,5.3V22.7z"/>
	<path d="M213.6,21.4c-0.2-3.2-0.3-6.8-0.3-10.7l1.6,2.2c0.1,1.5,0.3,2.7,0.6,3.7c0.1,0.3,0.3,0.6,0.5,1h3.1l2.9,4.8h-5.8V60
		l-2.8-5.1V28.7c0-1.4-0.2-2.5-0.5-3.2c-0.8-1.9-1.8-2.9-3-2.9c-0.1,0-0.4,0-0.7,0l-2.9-4.7c1.9-0.3,3.3-0.4,4.3-0.1
		C211.9,18,212.9,19.3,213.6,21.4z"/>
	<path d="M238,52.4c-0.2-0.6-0.4-1.3-0.5-2.2c0-1.8,0.3-3.2,1-4.1c0.3-0.4,1-0.7,2.1-0.8c0.7,0,1.3,0.4,1.9,1.5
		c0.5,1,0.8,2.1,0.8,3.3c0,1.8-0.4,3.4-1.2,4.7c-0.8,1.3-1.8,1.9-2.9,1.9c-1.4,0-2.6-0.6-3.5-1.9c-2.7-3.7-4.1-9-4.1-15.8
		c0-7.2,1.5-13.1,4.4-17.6c1.6-2.5,3.3-3.7,5-3.7l2.8,4.7c-2.5,0.4-4.6,1.9-6.1,4.6c-2.2,3.7-3.3,8.4-3.3,14.2
		c0,1.2,0.2,2.7,0.5,4.8C235.7,49.6,236.6,51.8,238,52.4z"/>
	<path d="M260.2,22.6v36.9l-2.1-4.7l-1.2-3c-1.2-3.1-3.2-5.5-5.8-7.3c-1-0.7-2.3-1-3.9-0.9l-4-8.6l2.1,0.1c0.8-0.3,1.6-0.6,2.3-0.9
		c0.7-0.3,1.5-0.8,2.3-1.7c2.2-2,3.2-4,3.2-6.2c0-1.1-0.2-2-0.6-2.7c-0.4-0.7-1-1-1.6-1c-0.4,0-0.9,0.3-1.6,0.8
		c-0.7,0.6-1.2,1.1-1.4,1.5c0.6,1.4,1,2.6,1,3.6c0,1.3-0.3,2.3-0.9,3.1c-0.6,0.8-1.3,1.2-2.1,1.2c-1,0-1.8-0.6-2.4-1.7
		c-0.5-1-0.8-2.2-0.8-3.7c0-0.9,0.1-1.8,0.3-2.8c0.6-2.3,1.6-4.1,3-5.4c1.3-1.2,2.8-1.8,4.4-1.7c1.6,0.1,2.9,1.1,4,3.1
		s1.6,4.3,1.6,7c0,4.2-1.5,7.9-4.6,11.3c1.1,1.2,1.9,1.9,2.2,2.3c0.7,0.8,1.4,1.7,2.1,2.8c0.6,0.9,1,1.8,1.4,2.5V10.1l1.9,3.7
		l0.1,0.9c0.1,1.5,0.2,2.4,0.5,2.8c0.8,0,1.7,0,2.8,0l3,5.1H260.2z"/>
	<path d="M278.2,22.6v36l-1.6-2.4c-1.4-4.1-2.1-6.3-2.3-6.7c-0.9-2.2-2-3.9-3.4-5.3c-1.6-1.6-3.4-2.5-5.3-2.7l-3.1-7
		c4.3-5.1,8.5-8.7,12.6-10.8v-1.1h-12.5l-3-4.8h21l3,4.8H278.2z M269.8,54.8c-0.8,0-1.4-0.4-1.9-1.3c-0.5-0.9-0.8-1.9-0.8-3.1
		c0-1.1,0.2-2.1,0.7-2.9c0.5-0.8,1-1.2,1.7-1.2c0.6,0,1.1,0.3,1.6,1c0.5,0.6,0.8,1.5,1,2.4c0.2,1.2,0,2.4-0.5,3.5
		C271.2,54.3,270.6,54.8,269.8,54.8z M275.2,30.2c-2.4,1.4-4.7,3.4-6.8,6c3,2.3,5.3,5.4,6.8,9.5V30.2z"/>
	<path d="M283.9,21.4c-0.2-3.2-0.3-6.8-0.3-10.7l1.6,2.2c0.1,1.5,0.3,2.7,0.6,3.7c0.1,0.3,0.3,0.6,0.5,1h3.1l2.9,4.8h-5.8V60
		l-2.8-5.1V28.7c0-1.4-0.2-2.5-0.5-3.2c-0.8-1.9-1.8-2.9-3-2.9c-0.1,0-0.4,0-0.7,0l-2.9-4.7c1.9-0.3,3.3-0.4,4.3-0.1
		C282.1,18,283.1,19.3,283.9,21.4z"/>
	<path d="M306.6,27.8l-0.3-3.6L306,11.8l1.9,2.3c0.1,0.2,0.1,0.4,0.2,0.6c0.1,1.2,0.2,1.9,0.4,2.4l0.6,0.6c0.3,0,0.7,0,1.2,0
		c0.9,0,1.4,0,1.7,0.1l2.8,4.7H309v35.7c-0.8-0.9-1.9-2.5-3.1-4.6l0.3-18.1c-0.6-3-1.2-4.9-2-5.8l-7,11.8l-3.9-2.4l2.3-3.9
		c0.2-0.3,0.3-0.8,0.3-1.5c0-1.8-0.3-2.7-1-2.7c-0.1,0-1,0.4-2.5,1.3c-0.6,0.2-1.1-0.1-1.6-0.9c-0.5-0.8-0.7-1.6-0.7-2.6
		c0-0.7,0.1-1.4,0.4-2.2c2-5.4,4.7-8.2,8-8.3c1.8,0,3.4,0.9,4.9,2.8C304.7,22.7,305.8,25,306.6,27.8z M298,31.5l3.9-6.4
		c-0.9-1.2-1.7-1.8-2.6-1.8c-1.8,0-3.2,1-4,3.1C296.7,26.8,297.6,28.5,298,31.5z"/>
	<path d="M316.7,22.6V59l-2.9-4.8V22.6h-2.4l-3.2-4.8h5.7l-0.3-1.8c-0.1-1-0.7-2.7-1.7-4.9c-1.8-4-4.9-6-9.4-6c-0.9,0-2,0.2-3.1,0.6
		c-1.5,0.5-2.3,1.2-2.3,2.1c0,0.6,0.5,1,1.6,1c3.1,0.2,4.8,0.3,5.1,0.4c3.4,0.8,5.2,3.3,5.2,7.7c0,0.8-0.1,1.7-0.3,2.8h-3.7
		c1.2-1.6,1.8-2.6,1.8-3.1c0-1.1-1-1.7-3-1.9c-2.4-0.2-3.6-0.3-3.7-0.3c-1.1-0.2-2.2-0.9-3.3-2c-1.1-1.1-1.7-2.8-1.7-4.9
		c0-2.1,0.8-3.8,2.4-5.1c1.9-1.5,3.8-2.2,5.7-2.2c1.4,0,3.2,0.6,5.4,1.7c1,0.6,2.2,1.8,3.6,3.6c0.8,1.1,1.5,2.5,2.3,4.4
		s1.2,3.6,1.5,5.2l0.5,2.8h3.6l2.9,4.8H316.7z"/>
	<path d="M350.7,55.9c-0.2-1.4-0.6-3.1-1.2-5.2c-0.6-1.1-1.4-1.6-2.6-1.6c-0.7,0-1.9,0.2-3.6,0.6c-1.5,0.4-2.7,0.5-3.6,0.3
		c-2.9-0.4-4.9-2.4-6-5.9c-0.7-2.1-1-4.4-1-6.9c0-3.6,0.3-6.4,1-8.6c0.3-1.2,0.6-1.8,0.9-1.8c0.2,0,0.4,0.2,0.6,0.5l1,1.9
		c-0.6,1.4-0.9,2.4-1,3.2c-0.1,0.4-0.2,1.6-0.3,3.5c-0.1,2.3,0.3,4.2,1.3,5.8c0.4,0.6,1.1,1.2,2.1,1.5c0.9,0.4,1.7,0.5,2.3,0.3
		c1.3-0.3,2.4-0.4,3.2-0.4c2.1,0,3.7,0.7,4.9,2c0.2,0.4,0.4,0.7,0.7,1V22.5c0,0-0.1-0.1-0.2-0.1c-1,0-2.3,1.2-3.9,3.6
		c-0.9,1.3-1.5,2.8-1.8,4.4c0.2,0,0.4,0,0.5,0c0.7,0,1.2,0.5,1.6,1.4c0.4,0.9,0.6,2,0.6,3.1c0,1.1-0.2,2.1-0.6,3
		c-0.4,0.9-0.9,1.5-1.5,1.7c-0.4,0.1-0.8,0.1-1.1,0.1c-1.7,0-2.8-1.1-3.5-3.3c-0.4-1.4-0.6-2.8-0.5-4c0.5-5.1,2.1-9.3,4.8-12.5
		c1.6-1.8,3.1-2.7,4.6-2.6c0.7,0,1.6,0.8,2.5,2.2c0.9,1.4,1.4,2.7,1.4,3.9v35.4L350.7,55.9z"/>
	<path d="M364.7,31.8c0,0.1,0,0.2,0,0.3c0,0.9-0.2,1.6-0.7,2.3c-0.5,0.7-1,1-1.6,1c-1.6,0-2.5-1.7-2.7-5.2c-0.1-1.5,0.2-2.8,1-3.7
		c0.6-0.9,1.4-1.3,2.3-1.3c1,0,2,1,2.9,3v-5.6h-10.5l-2.8-4.8h26l2.9,4.8h-12.7v12.1c0,0.2,0,0.5,0.1,0.8c0,0,0.1,0.1,0.3,0.1
		c0.1,0,0.5-0.5,1.1-1.5c0.6-1,0.9-1.7,1-1.9l2.2-5.2c1.7,2.1,2.8,5.2,3.4,9.3c0.1,1.1,0.2,2.2,0.2,3.2c0,2.3-0.3,4.6-0.9,6.9
		c-1.3,5.1-3.9,7.7-7.6,7.6c-1.7,0-3.4-0.9-5-2.7c-1.5-1.7-2.8-3.8-3.6-6.4c-0.2-0.6-0.8-2.4-1.7-5.2c-0.6-2.4-1.5-8.1-2.7-17
		l2.9,4.8c0.4,3,0.9,6.2,1.6,9.3c0.3,1.3,1.1,3.2,2.3,5.6c1.7,3.3,3.8,5,6.3,5c1.3,0,2.6-0.6,3.9-1.9c0.5-0.5,1-1.6,1.7-3.3
		c0.4-1.4,0.6-2.4,0.6-2.9c0.1-1.3-0.1-2.6-0.4-3.7c-0.5,1.3-1.4,2.6-2.6,3.9c-1,1.3-1.9,1.9-2.7,1.9c-1.1,0-1.9-0.9-2.5-2.7l-1-4.9
		C365.5,33.4,365.2,32.8,364.7,31.8z"/>
	<path d="M397.5,34.5c0.5,1.2,0.8,2.3,1,3.2c0.1,0.6,0.1,1.1,0.1,1.6c0,1.5-0.3,2.7-0.9,3.6c-0.6,0.9-1.4,1.3-2.4,1.3
		c-2.9,0-4.4-2.4-4.4-7.3c0-2.4,0.5-4.5,1.6-6.1c1.1-1.6,2.4-2.4,3.9-2.4c2.7,0,5,2.8,6.9,8.3l0.3,0.8V22.6h-14l-2.9-4.8h22.8
		l3.1,4.8h-6v37.5l-1.6-3.6c0-0.3,0-0.7,0-1.2c0-1.8-0.3-4.1-0.8-7c-0.4-2.6-0.9-4.8-1.4-6.5c-0.5-1.7-1.2-3.3-2.1-4.6
		C399.5,35.5,398.5,34.7,397.5,34.5z"/>
	<path d="M418.3,22.3c-0.8,0-1.5,0.4-2.2,1.1c-0.6,0.7-1,1.8-1.2,3c-0.2,2.2-0.1,5.6,0.4,10.2c0.6,5.4,0.9,8.7,0.9,10
		c0,4.1-1.3,7.4-3.8,10c-1.2,1.2-2.1,1.9-2.8,1.9c-0.7,0-1.2-0.6-1.4-1.7c-0.1-0.2-0.1-0.4-0.1-0.6c0-0.6,0.3-1.1,0.9-1.4
		c0.8-0.4,1.2-0.6,1.3-0.7c0.9-1.2,1.4-1.9,1.6-2.3c0.3-0.8,0.6-2.3,0.7-4.3c0.1-0.9-0.2-3-0.7-6.3c-0.6-3.6-0.8-6.2-0.8-8
		c0-2.4,0.4-4.9,1.2-7.3c0.5-1.2,1-2.3,1.5-3.5h-5.2l-3-4.8h13.7l3.1,4.8C421.4,22.4,420,22.3,418.3,22.3z"/>
	<path d="M422.1,21.4c-0.2-3.2-0.3-6.8-0.3-10.7l1.6,2.2c0.1,1.5,0.3,2.7,0.6,3.7c0.1,0.3,0.3,0.6,0.5,1h3.1l2.9,4.8h-5.8V60
		l-2.8-5.1V28.7c0-1.4-0.2-2.5-0.5-3.2c-0.8-1.9-1.8-2.9-3-2.9c-0.1,0-0.4,0-0.7,0l-2.9-4.7c1.9-0.3,3.3-0.4,4.3-0.1
		C420.3,18,421.3,19.3,422.1,21.4z"/>
	<path d="M432.9,22.6c0,0.2,0.1,0.5,0.1,0.8v0.5c0.1,0,0.1,0.1,0.2,0.1c0.9,2.3,2.5,4,4.7,5.1c1.6,0.9,2.7,1.5,3.1,1.8
		c1.4,1.1,2.1,2.9,2.1,5.3c0,2.9-0.6,5.7-1.7,8.5c-2.6,6.4-5.1,9.6-7.5,9.6c-0.9,0-1.7-0.8-2.6-2.5c-0.9-1.7-1.3-3.2-1.3-4.7V22.6
		h-2.8l-2.9-4.8h20.2l3,4.8H432.9z M439,36.7c-0.6-0.4-1.4-0.9-2.4-1.7c-1.6-1.7-2.8-3.4-3.7-5.3v17.4c0,0.8,0.2,1.2,0.5,1.2
		c0.9,0,2.4-1.9,4.4-5.7c0.9-1.8,1.3-3.5,1.3-5.1C439.1,37.2,439.1,36.9,439,36.7z"/>
	<path d="M447.6,21.4c-0.2-3.2-0.3-6.8-0.3-10.7l1.6,2.2c0.1,1.5,0.3,2.7,0.6,3.7c0.1,0.3,0.3,0.6,0.5,1h3.1l2.9,4.8h-5.8V60
		l-2.8-5.1V28.7c0-1.4-0.2-2.5-0.5-3.2c-0.8-1.9-1.8-2.9-3-2.9c-0.1,0-0.4,0-0.7,0l-2.9-4.7c1.9-0.3,3.3-0.4,4.3-0.1
		C445.9,18,446.9,19.3,447.6,21.4z"/>
	<path d="M468.4,22.6v36l-1.6-2.4c-1.4-4.1-2.1-6.3-2.3-6.7c-0.9-2.2-2-3.9-3.4-5.3c-1.6-1.6-3.4-2.5-5.3-2.7l-3.1-7
		c4.3-5.1,8.5-8.7,12.6-10.8v-1.1h-12.5l-3-4.8h21l3,4.8H468.4z M460,54.8c-0.8,0-1.4-0.4-1.9-1.3c-0.5-0.9-0.8-1.9-0.8-3.1
		c0-1.1,0.2-2.1,0.7-2.9c0.5-0.8,1-1.2,1.7-1.2c0.6,0,1.1,0.3,1.6,1c0.5,0.6,0.8,1.5,1,2.4c0.2,1.2,0,2.4-0.5,3.5
		C461.4,54.3,460.8,54.8,460,54.8z M465.4,30.2c-2.4,1.4-4.7,3.4-6.8,6c3,2.3,5.3,5.4,6.8,9.5V30.2z"/>
	<path d="M474.1,21.4c-0.2-3.2-0.3-6.8-0.3-10.7l1.6,2.2c0.1,1.5,0.3,2.7,0.6,3.7c0.1,0.3,0.3,0.6,0.5,1h3.1l2.9,4.8h-5.8V60
		l-2.8-5.1V28.7c0-1.4-0.2-2.5-0.5-3.2c-0.8-1.9-1.8-2.9-3-2.9c-0.1,0-0.4,0-0.7,0l-2.9-4.7c1.9-0.3,3.3-0.4,4.3-0.1
		C472.3,18,473.4,19.3,474.1,21.4z"/>
	<path d="M498.2,22.5v36.5l-3-4.7V34.8c0-0.9-0.2-1.7-0.7-2.6s-1-1.2-1.5-1.2c-0.5,0-0.8,0.3-1,1c-0.2,0.7-0.2,2.1,0,4.3l-2.1,1.3
		c0.3-1,0.3-1.8,0-2.5c-0.6-1.4-0.9-2.2-1.1-2.4c-0.7-1.2-1.6-1.7-2.7-1.7c-0.9,0-1.7,0.5-2.4,1.6c-0.7,1-1,2.3-1,3.8
		c0,1.9,0.5,3.2,1.5,3.8c-0.1-0.5-0.2-1-0.2-1.6c0-1.3,0.3-2.4,0.8-3.2c0.5-0.8,1.2-1.2,2-1.2c1.2,0,2.1,1.1,2.6,3.4
		c0.4,1.8,0.6,3.2,0.3,4c-0.6,2.5-1.8,3.7-3.5,3.7c-1.9,0-3.5-1-4.6-2.9c-1.1-1.9-1.7-4.5-1.7-7.6c0-2.6,0.4-4.9,1.3-6.8
		c0.9-2.2,2.2-3.3,3.7-3.4c1.6,0,3,0.9,4.2,2.9l0.3,0.6c0.3-0.8,0.7-1.6,1.2-2.3c0.6-0.7,1.1-1,1.5-1c0.9,0.1,1.6,0.6,2.2,1.5
		c0.3,0.6,0.5,1.1,0.7,1.5c0.1,0.2,0.2,0.4,0.3,0.6v-5.8h-16l-3-4.8H501l3,4.8H498.2z"/>
	<path d="M520.1,52.4c-0.2-0.6-0.4-1.3-0.5-2.2c0-1.8,0.3-3.2,1-4.1c0.3-0.4,1-0.7,2.1-0.8c0.7,0,1.3,0.4,1.9,1.5
		c0.5,1,0.8,2.1,0.8,3.3c0,1.8-0.4,3.4-1.2,4.7c-0.8,1.3-1.8,1.9-2.9,1.9c-1.4,0-2.6-0.6-3.5-1.9c-2.7-3.7-4.1-9-4.1-15.8
		c0-7.2,1.5-13.1,4.4-17.6c1.6-2.5,3.3-3.7,5-3.7l2.8,4.7c-2.5,0.4-4.6,1.9-6.1,4.6c-2.2,3.7-3.3,8.4-3.3,14.2
		c0,1.2,0.2,2.7,0.5,4.8C517.7,49.6,518.7,51.8,520.1,52.4z"/>
	<path d="M526.1,25.9L526.1,25.9c-0.3-0.3-0.8-1-1.3-2.1l-0.5-1.5l-2.8-4.6h23.2l3,5h-6.1v36.5l-1.7-3.1c-0.6-4.3-1.4-7.1-2.3-8.3
		c-1.3-1.9-2.2-3-2.8-3.5c-1,2.1-2.2,3.1-3.7,3.1c-1.6,0-2.8-1.1-3.6-3.3c0-0.4,0-0.9-0.1-1.6c-0.1-0.7-0.1-1.2-0.1-1.5
		c0-2.2,0.5-3.9,1.4-5.1c0.8-1.1,1.9-1.7,3.3-1.7c0.4,0,0.8,0.1,1.1,0.2c-0.2-2.4-0.9-4.2-2-5.5c-0.3-0.3-1.1-0.8-2.6-1.5
		C527.2,26.8,526.5,26.3,526.1,25.9z M538.8,22.7h-8.1c1.5,2.1,2.5,3.5,2.9,4.2c1,1.8,1.6,3.6,1.9,5.4c0.4,3,0.6,5.2,0.6,6.5
		c0.7,1.2,1.6,3,2.7,5.3V22.7z"/>
	<path d="M562.6,10.8c-2.1-2.6-4.4-3.9-7.1-3.9c-1.5,0-3,0.9-4.8,2.8c-0.4,0.6-0.9,1.6-1.4,2.8c-0.6,1.4-0.9,2.3-0.9,2.7l0.7,2.5
		h3.8l2.9,4.8H550v36l-3-4.7V22.6h-2.8l-2.9-4.8h5.4c-0.4-0.6-0.7-1.2-1.1-1.9c-0.3-0.7-0.5-1.4-0.5-2.2c0-1.4,0.2-2.5,0.5-3.3
		c0.8-2.1,1.5-3.6,2.1-4.6c0.6-1,1.6-2,2.9-3c0.8-0.6,1.8-1,2.9-1c2.8,0,5.7,1.6,8.8,4.8c1,1,2.3,2.9,3.9,5.6l0.9,4.5L562.6,10.8z"
		/>
	<path d="M563.4,22.6v12c0.6-0.2,1.3-0.9,2.1-2c0.8-1.1,1.3-2.1,1.7-3.1c0.3-0.7,0.7-1.5,1.2-2.4c1.3,0.9,2.3,2.6,3.1,5.3
		c0.8,2.4,1.1,4.8,1.1,7.2c0,4.7-0.8,8.2-2.3,10.7c-1.6,2.4-3.7,3.5-6.5,3.2c-1.9-0.2-3.5-1.5-4.8-3.8c-0.8-1.4-1.8-3.9-2.9-7.5
		c-1.1-4.5-1.9-8.8-2.1-13.1c0-0.1-0.1-2.3-0.4-6.5l2.1,1.9c0.1,3.4,0.6,6.9,1.5,10.6c1,4.3,2.1,7.3,3.4,8.8
		c0.9,1.4,2.2,2.2,3.9,2.2c2.2,0,3.9-1.4,5.1-4.3c0.5-1.2,0.8-2.5,0.8-3.8c0-1.1-0.2-2.1-0.7-3.1c-0.3,0.7-0.8,1.6-1.4,2.6
		c-1.7,2.5-3.1,3.8-4.4,3.8c-1.6,0-2.7-1.7-3.3-5.1c0-0.6,0-5.1,0-13.6h-8l-2.9-4.8h24.8l2.9,4.8H563.4z"/>
	<path d="M592.5,10.8c-2.1-2.6-4.4-3.9-7.1-3.9c-1.5,0-3,0.9-4.8,2.8c-0.4,0.6-0.9,1.6-1.4,2.8c-0.6,1.4-0.9,2.3-0.9,2.7l0.7,2.5
		h3.8l2.9,4.8h-5.9v36l-3-4.7V22.6h-2.8l-2.9-4.8h5.4c-0.4-0.6-0.7-1.2-1.1-1.9c-0.3-0.7-0.5-1.4-0.5-2.2c0-1.4,0.2-2.5,0.5-3.3
		c0.8-2.1,1.5-3.6,2.1-4.6c0.6-1,1.6-2,2.9-3c0.8-0.6,1.8-1,2.9-1c2.8,0,5.7,1.6,8.8,4.8c1,1,2.3,2.9,3.9,5.6l0.9,4.5L592.5,10.8z"
		/>
	<path d="M601.1,22.6v36.6l-2.9-5.5V37.6c-0.1-0.7-0.4-1.5-1-2.2s-1.1-1.1-1.5-1.1c-0.7,0-1.3,0.7-1.8,2.1c-2.3,5.8-3.9,8.8-4.6,9
		c-0.2,0-0.5,0.1-0.8,0.1c-0.9,0-1.5-0.2-1.9-0.7c-0.8-0.3-1.9-2.9-3.4-7.7l2.2-3.6c0.1,1.3,0.3,2.4,0.5,3.3
		c0.4,1.4,0.8,2.1,1.2,2.1s1.5-2.1,3.4-6.4c-0.3-4.4-1.4-6.6-3.4-6.8c-1.3-0.1-2.2-0.2-2.5-0.4c-0.7-0.4-1.3-1.3-1.9-2.7L582,22
		l-2.7-4.3h24.5l2.9,4.8H601.1z M598.2,22.6h-7.9c1.3,1.8,1.9,4,1.9,6.8v0.1c1.2-1.4,2-2.1,2.3-2.1c0.9,0,2.1,1.6,3.6,4.7V22.6z"/>
	<path d="M611.2,34.5c0.5,1.2,0.8,2.3,1,3.2c0.1,0.6,0.1,1.1,0.1,1.6c0,1.5-0.3,2.7-0.9,3.6c-0.6,0.9-1.4,1.3-2.4,1.3
		c-2.9,0-4.4-2.4-4.4-7.3c0-2.4,0.5-4.5,1.6-6.1c1.1-1.6,2.4-2.4,3.9-2.4c2.7,0,5,2.8,6.9,8.3l0.3,0.8V22.6h-14l-2.9-4.8H623
		l3.1,4.8h-5.9v37.5l-1.6-3.6c0-0.3,0-0.7,0-1.2c0-1.8-0.3-4.1-0.8-7c-0.4-2.6-0.9-4.8-1.4-6.5c-0.5-1.7-1.2-3.3-2.1-4.6
		C613.2,35.5,612.2,34.7,611.2,34.5z"/>
	<path d="M641.6,52.4c-0.2-0.6-0.4-1.3-0.5-2.2c0-1.8,0.3-3.2,1-4.1c0.3-0.4,1-0.7,2.1-0.8c0.7,0,1.3,0.4,1.9,1.5
		c0.5,1,0.8,2.1,0.8,3.3c0,1.8-0.4,3.4-1.2,4.7c-0.8,1.3-1.8,1.9-2.9,1.9c-1.4,0-2.6-0.6-3.5-1.9c-2.7-3.7-4.1-9-4.1-15.8
		c0-7.2,1.5-13.1,4.4-17.6c1.6-2.5,3.3-3.7,5-3.7l2.8,4.7c-2.5,0.4-4.6,1.9-6.1,4.6c-2.2,3.7-3.3,8.4-3.3,14.2
		c0,1.2,0.2,2.7,0.5,4.8C639.2,49.6,640.2,51.8,641.6,52.4z"/>
	<path d="M653.7,24.1c-0.3-0.8-0.8-1.4-1.3-1.6h-6.2l-3.1-4.8H665l2.9,4.8h-11.9L656,23c0.1,0.3,0.3,0.7,0.5,1.2
		c0.5,0,1.1,0.3,1.8,0.8c2.3,1.5,3.7,4.2,4.2,8.1c0.1,0.6,0.1,1.3,0.1,1.9c0,3.8-1.1,6.7-3.4,8.7c-0.1,0.1-0.9,0.7-2.3,1.9
		c0.3,0.2,0.9,0.7,1.8,1.6c1.3,1.2,2.5,2.9,3.7,4.8c0.2,0.3,1.3,2.2,3.3,5.7l1.3,8c-1-2.1-1.8-3.5-2.2-4.2c-1.7-3.1-4.2-6.2-7.5-9.3
		c-2.5-2.4-5.3-4.1-8.1-5l-2.9-11.8c2.6,2.9,5,4.4,7.2,4.4c2.2,0,4.1-1.3,5.7-3.9c0.4-0.6,0.6-1.4,0.6-2.3c0-1.2-0.3-2.2-1-3
		c-0.7-0.8-1.5-1.2-2.3-1.2c-0.2,0-0.4,0-0.5,0.1c-0.1,1.7-0.8,3.4-1.9,5.1c-0.7,1.1-1.5,1.6-2.4,1.6c-1.6,0-2.6-1.3-2.9-3.8
		c-0.2-1.4,0.2-2.9,1-4.6c0.4-0.9,1-1.6,1.7-2.2C651.7,25.4,652.4,25,653.7,24.1z"/>
	<path d="M683.6,22.5v36.5l-3-4.7V34.8c0-0.9-0.2-1.7-0.7-2.6s-1-1.2-1.5-1.2c-0.5,0-0.8,0.3-1,1c-0.2,0.7-0.2,2.1,0,4.3l-2.1,1.3
		c0.3-1,0.3-1.8,0-2.5c-0.6-1.4-0.9-2.2-1.1-2.4c-0.7-1.2-1.6-1.7-2.7-1.7c-0.9,0-1.7,0.5-2.4,1.6c-0.7,1-1,2.3-1,3.8
		c0,1.9,0.5,3.2,1.5,3.8c-0.1-0.5-0.2-1-0.2-1.6c0-1.3,0.3-2.4,0.8-3.2c0.5-0.8,1.2-1.2,2-1.2c1.2,0,2.1,1.1,2.6,3.4
		c0.4,1.8,0.6,3.2,0.3,4c-0.6,2.5-1.8,3.7-3.5,3.7c-1.9,0-3.5-1-4.6-2.9c-1.1-1.9-1.7-4.5-1.7-7.6c0-2.6,0.4-4.9,1.3-6.8
		c0.9-2.2,2.2-3.3,3.7-3.4c1.6,0,3,0.9,4.2,2.9l0.3,0.6c0.3-0.8,0.7-1.6,1.2-2.3c0.6-0.7,1.1-1,1.5-1c0.9,0.1,1.6,0.6,2.2,1.5
		c0.3,0.6,0.5,1.1,0.7,1.5c0.1,0.2,0.2,0.4,0.3,0.6v-5.8h-16l-3-4.8h24.7l3,4.8H683.6z"/>
	<path d="M703.8,22.6v36.9l-2.1-4.7l-1.2-3c-1.2-3.1-3.2-5.5-5.8-7.3c-1-0.7-2.3-1-3.9-0.9l-4-8.6L689,35c0.8-0.3,1.6-0.6,2.3-0.9
		c0.7-0.3,1.5-0.8,2.3-1.7c2.2-2,3.2-4,3.2-6.2c0-1.1-0.2-2-0.6-2.7c-0.4-0.7-1-1-1.6-1c-0.4,0-0.9,0.3-1.6,0.8s-1.2,1.1-1.4,1.5
		c0.6,1.4,1,2.6,1,3.6c0,1.3-0.3,2.3-0.9,3.1c-0.6,0.8-1.3,1.2-2.1,1.2c-1,0-1.8-0.6-2.4-1.7c-0.5-1-0.8-2.2-0.8-3.7
		c0-0.9,0.1-1.8,0.3-2.8c0.6-2.3,1.6-4.1,3-5.4c1.3-1.2,2.8-1.8,4.4-1.7c1.6,0.1,2.9,1.1,4,3.1s1.6,4.3,1.6,7
		c0,4.2-1.5,7.9-4.6,11.3c1.1,1.2,1.9,1.9,2.2,2.3c0.7,0.8,1.4,1.7,2.1,2.8c0.6,0.9,1,1.8,1.4,2.5V10.1l1.9,3.7l0.1,0.9
		c0.1,1.5,0.2,2.4,0.5,2.8c0.8,0,1.7,0,2.8,0l3,5.1H703.8z"/>
	<path d="M725.4,52.4c-0.2-0.6-0.4-1.3-0.5-2.2c0-1.8,0.3-3.2,1-4.1c0.3-0.4,1-0.7,2.1-0.8c0.7,0,1.3,0.4,1.9,1.5
		c0.5,1,0.8,2.1,0.8,3.3c0,1.8-0.4,3.4-1.2,4.7c-0.8,1.3-1.8,1.9-2.9,1.9c-1.4,0-2.6-0.6-3.5-1.9c-2.7-3.7-4.1-9-4.1-15.8
		c0-7.2,1.5-13.1,4.4-17.6c1.6-2.5,3.3-3.7,5-3.7l2.8,4.7c-2.5,0.4-4.6,1.9-6.1,4.6c-2.2,3.7-3.3,8.4-3.3,14.2
		c0,1.2,0.2,2.7,0.5,4.8C723,49.6,724,51.8,725.4,52.4z"/>
	<path d="M745.2,22.6v1.1c1.7,0,3.4,1.2,4.9,3.7c1.4,2.3,2.3,4.9,2.7,7.8c0.1,1.1,0.2,2.1,0.2,3c0,1.9-0.3,3.6-1,5.1
		c-0.7,1.6-1.7,2.4-2.8,2.4c-0.8,0-1.5-0.5-2.2-1.5c-0.6-1-1-2.1-1-3.5c0-1.5,0.5-2.9,1.4-4.2c0.5-0.3,1-0.4,1.4-0.4
		c0.8,0,1.6,0.6,2.3,1.8c0.1,0.2,0.2,0.4,0.2,0.6c0,0.5-0.3,0.8-1.1,0.8c0.2-0.6,0.3-1.1,0.3-1.3c0-1.9-0.5-3.7-1.5-5.4
		c-1.1-1.9-2.5-2.8-4-2.8v28.6l-1.6-2.6c-0.4-2.2-0.8-3.6-0.9-4.1c-0.3-1-0.8-2.2-1.5-3.7c-0.9-1.8-1.7-3-2.4-3.7
		c-1.6-1.6-3.3-2.6-5.1-3l-3.3-6.6c3.5-4.8,7.5-8.4,11.9-10.8v-1.5h-12.5l-3-4.8h27.3l2.9,4.8H745.2z M738.1,33.6
		c-0.3,0.4-1,1.2-2.1,2.4c2.7,2.1,4.7,5,6.2,8.9V30.3C740.5,31.5,739.1,32.6,738.1,33.6z"/>
	<path d="M770.1,22.6v36.8l-1.6-3c-0.7-2.4-1.2-3.9-1.4-4.6c-0.5-1.3-1.1-2.6-2-3.9c-1.1-1.8-2.2-3-3.1-3.6c-0.8-0.5-2.1-0.8-3.8-1
		l-3.1-6.6c1.6-2.7,3-4.8,4.2-6.4c0.3-0.3,0.9-1.2,1.9-2.5c-0.2-0.4-0.3-0.6-0.4-0.6c-0.5-0.5-1.7-1-3.6-1.6
		c-1.5-0.4-2.6-1.5-3.3-3.1l-2.9-4.8h22.3l3.1,4.8H770.1z M761.4,55.8c-0.8,0-1.4-0.4-2-1.3c-0.5-0.9-0.8-1.9-0.8-3.1
		c0-1.2,0.2-2.1,0.7-3c0.5-0.8,1.1-1.2,1.8-1.2c0.8,0,1.4,0.4,2,1.3c0.5,0.9,0.8,1.9,0.8,3c0,1.2-0.2,2.2-0.7,3
		C762.7,55.4,762.1,55.8,761.4,55.8z M767.2,22.6h-5.9c0.4,0.5,0.7,0.9,1.1,1.5c0.2,0.4,1.3,2.4,3.1,6c-0.7,1.3-1.5,2.7-2.5,3.9
		c-0.4,0.6-1.2,2-2.3,4.1c2.6,1.6,4.7,4.3,6.4,8.2V22.6z"/>
	<path d="M776,21.4c-0.2-3.2-0.3-6.8-0.3-10.7l1.6,2.2c0.1,1.5,0.3,2.7,0.6,3.7c0.1,0.3,0.3,0.6,0.5,1h3.1l2.9,4.8h-5.8V60l-2.8-5.1
		V28.7c0-1.4-0.2-2.5-0.5-3.2c-0.8-1.9-1.8-2.9-3-2.9c-0.1,0-0.4,0-0.7,0l-2.9-4.7c1.9-0.3,3.3-0.4,4.3-0.1
		C774.3,18,775.3,19.3,776,21.4z"/>
	<path d="M796.8,22.6v36l-1.6-2.4c-1.4-4.1-2.1-6.3-2.3-6.7c-0.9-2.2-2-3.9-3.4-5.3c-1.6-1.6-3.4-2.5-5.3-2.7l-3.1-7
		c4.3-5.1,8.5-8.7,12.6-10.8v-1.1h-12.5l-3-4.8h21l3,4.8H796.8z M788.4,54.8c-0.8,0-1.4-0.4-1.9-1.3c-0.5-0.9-0.8-1.9-0.8-3.1
		c0-1.1,0.2-2.1,0.7-2.9c0.5-0.8,1-1.2,1.7-1.2c0.6,0,1.1,0.3,1.6,1c0.5,0.6,0.8,1.5,1,2.4c0.2,1.2,0,2.4-0.5,3.5
		C789.8,54.3,789.2,54.8,788.4,54.8z M793.8,30.2c-2.4,1.4-4.7,3.4-6.8,6c3,2.3,5.3,5.4,6.8,9.5V30.2z"/>
</g>
</svg>
